<svg width="32" height="40" viewBox="0 0 32 40" fill="none" xmlns="http://www.w3.org/2000/svg">
<path d="M15.562 40C17.8184 40 19.6646 38.1538 19.6646 35.8974H11.4594C11.4594 38.1538 13.2851 40 15.562 40ZM27.8697 27.6923V17.4359C27.8697 11.1385 24.5056 5.86667 18.6389 4.47179V3.07692C18.6389 1.37436 17.2646 0 15.562 0C13.8594 0 12.4851 1.37436 12.4851 3.07692V4.47179C6.5979 5.86667 3.25431 11.1179 3.25431 17.4359V27.6923L0.608158 30.3385C-0.684149 31.6308 0.218415 33.8462 2.04406 33.8462H29.0594C30.8851 33.8462 31.8082 31.6308 30.5159 30.3385L27.8697 27.6923Z" fill="#D5DF45"/>
<circle cx="27" cy="9" r="4.5" fill="#D6E5D0" stroke="#2F4A3B"/>
</svg>
