<svg
          width="32"
          height="40"
          viewBox="0 0 32 40"
          fill="none"
          xmlns="http://www.w3.org/2000/svg"
        >
          <path
            d="M15.7533 40C18.0097 40 19.8559 38.1538 19.8559 35.8974H11.6507C11.6507 38.1538 13.4764 40 15.7533 40ZM28.061 27.6923V17.4359C28.061 11.1385 24.6969 5.86667 18.8302 4.47179V3.07692C18.8302 1.37436 17.4559 0 15.7533 0C14.0507 0 12.6764 1.37436 12.6764 3.07692V4.47179C6.78919 5.86667 3.4456 11.1179 3.4456 17.4359V27.6923L0.799443 30.3385C-0.492865 31.6308 0.409699 33.8462 2.23534 33.8462H29.2507C31.0764 33.8462 31.9994 31.6308 30.7071 30.3385L28.061 27.6923Z"
            fill="white"
          />
        </svg>