<?xml version="1.0" encoding="utf-8"?>
<!-- Generator: Adobe Illustrator 26.3.1, SVG Export Plug-In . SVG Version: 6.00 Build 0)  -->
<svg version="1.1" id="레이어_1" xmlns="http://www.w3.org/2000/svg" xmlns:xlink="http://www.w3.org/1999/xlink" x="0px"
	 y="0px" viewBox="0 0 700 700" style="enable-background:new 0 0 700 700;" xml:space="preserve">
<g>
	<path d="M347.4,201.4c-5.8,0.6-11.2,2.9-15.6,6.6L214.2,308.9c-5.9,4.7-9.7,11.7-10.4,19.2c-0.7,7.6,1.7,15.1,6.6,20.8
		c4.9,5.8,12,9.3,19.6,9.7c7.6,0.5,15-2.2,20.6-7.3l99.4-85.2l99.4,85.2c5.6,5.1,13,7.7,20.6,7.3c7.6-0.5,14.6-4,19.6-9.7
		c4.9-5.8,7.3-13.3,6.6-20.8c-0.7-7.6-4.4-14.5-10.4-19.2L368.2,208.1C362.5,203.1,354.9,200.7,347.4,201.4L347.4,201.4z"/>
</g>
</svg>
