<?xml version="1.0" encoding="utf-8"?>
<!-- Generator: Adobe Illustrator 26.3.1, SVG Export Plug-In . SVG Version: 6.00 Build 0)  -->
<svg version="1.1" id="레이어_1" xmlns="http://www.w3.org/2000/svg" xmlns:xlink="http://www.w3.org/1999/xlink" x="0px"
	 y="0px" viewBox="0 0 700 700" style="enable-background:new 0 0 700 700;" xml:space="preserve">
<style type="text/css">
	.st0{fill:#FFFFFF;}
</style>
<path class="st0" d="M350,75.9c-65,0-127.3,17.2-173.2,47.8c-45.9,30.6-71.8,72.2-71.8,115.5c0.1,30.4,12.8,60.2,36.9,86
	c24,25.8,58.4,46.6,99.2,60.1v98.9l103.4-81.9v0c1.8,0,3.7,0,5.5,0c65,0,127.3-17.2,173.2-47.8c45.9-30.6,71.8-72.2,71.8-115.5
	c0-28.7-11.3-56.8-32.8-81.7c-21.5-24.8-52.4-45.4-89.7-59.8S393,75.7,350,75.7L350,75.9z"/>
</svg>
