<svg width="24" height="32" viewBox="0 0 24 32" fill="none" xmlns="http://www.w3.org/2000/svg">
<path d="M12.2565 19.9008C14.9927 19.9008 17.1851 17.6786 17.1851 14.9257L17.2015 4.97556C17.2015 2.22269 14.9927 0.000488281 12.2565 0.000488281C9.52022 0.000488281 7.31142 2.22269 7.31142 4.97556V14.9257C7.31142 17.6786 9.52022 19.9008 12.2565 19.9008ZM20.9927 14.9257C20.9927 19.9008 16.8059 23.3833 12.2565 23.3833C7.70703 23.3833 3.52022 19.9008 3.52022 14.9257H0.718018C0.718018 20.5807 5.20153 25.2573 10.6081 26.0699V31.5093H13.9048V26.0699C19.3114 25.2738 23.7949 20.5973 23.7949 14.9257H20.9927Z" fill="black"/>
</svg>
