<?xml version="1.0" encoding="utf-8"?>
<!-- Generator: Adobe Illustrator 26.3.1, SVG Export Plug-In . SVG Version: 6.00 Build 0)  -->
<svg version="1.1" id="레이어_1" xmlns="http://www.w3.org/2000/svg" xmlns:xlink="http://www.w3.org/1999/xlink" x="0px"
	 y="0px" viewBox="0 0 560 411" style="enable-background:new 0 0 560 411;" xml:space="preserve">
<g>
	<path d="M548.3,338H11.7C5.3,338,0,332.8,0,326.3v-315C0,4.9,5.2-0.4,11.7-0.4h536.7c6.4,0,11.7,5.2,11.7,11.7v315
		C560,332.7,554.8,338,548.3,338z M23.3,314.6h513.3V22.9H23.3V314.6z"/>
	<path d="M402.5,410.9c-4.1,0-7.9-2.1-10-5.7c-9.5-7-20.1-12.3-31.4-15.7c-52.6-18.1-109.6-18.1-162.2,0
		c-11.3,3.4-21.9,8.7-31.4,15.7c-3.2,5.4-10.1,7.2-15.6,4.2s-7.6-9.8-4.8-15.4c6.2-12.3,35.3-23.4,44-26.5l0,0
		c57.6-19.9,120.2-19.9,177.8,0c8.8,3.1,37.9,14.2,44,26.5l0,0c1.8,3.6,1.6,7.9-0.5,11.4C410.3,408.8,406.6,410.9,402.5,410.9
		L402.5,410.9z M167.9,404.4L167.9,404.4L167.9,404.4z M392.1,404.4L392.1,404.4L392.1,404.4z"/>
</g>
</svg>
