<svg width="202" height="240" viewBox="0 0 202 240" fill="none" xmlns="http://www.w3.org/2000/svg">
<path d="M101 181.8C56.459 181.8 20.2 145.541 20.2 101C20.2 56.459 56.459 20.2 101 20.2C145.541 20.2 181.8 56.459 181.8 101C181.8 145.541 145.541 181.8 101 181.8ZM101 202C156.752 202 202 156.752 202 101C202 45.248 156.752 1.13031e-05 101 6.42909e-06C45.248 1.55509e-06 1.37037e-05 45.248 8.8297e-06 101C3.95571e-06 156.752 45.248 202 101 202ZM90.9 101L90.9 141.4L111.1 141.4L111.1 101L141.4 101L101 60.6L60.6 101L90.9 101Z" fill="#EFEFEF"/>
<path d="M30.144 229.772H26.008V223.7H30.144V229.772ZM23.126 229.772H20.486V232.082H35.71V229.772H33.026V223.7H35.776V221.39H20.376V223.7H23.126V229.772ZM18.946 235.184V237.538H37.294V235.184H18.946ZM49.7883 235.294V232.28H55.9263V229.948H44.1783V227.682H55.4643V220.928H41.2743V223.238H52.6043V225.416H41.2963V232.28H46.8843V235.294H39.1843V237.67H57.5323V235.294H49.7883ZM67.8046 224.624V226.978H69.9606V231.884H72.6666V220.004H69.9606V224.624H67.8046ZM69.3886 229.222C66.8146 228.21 65.8026 226.12 65.8026 223.942V223.392H68.7506V221.082H59.7966V223.392H62.9866V223.942C62.9866 226.208 61.9086 228.518 59.1586 229.596L60.6326 231.818C62.4806 231.092 63.6906 229.794 64.4166 228.188C65.0986 229.64 66.2426 230.806 67.9586 231.466L69.3886 229.222ZM62.7446 235.03H73.7886V239.914H76.6926V232.742H62.7446V235.03ZM73.9426 219.63V231.972H76.6926V219.63H73.9426ZM96.0508 230.08H84.7648V227.814H95.4348V225.57H84.7648V223.436H95.8968V221.104H81.8168V232.368H96.0508V230.08ZM79.6608 235.206V237.56H98.0088V235.206H79.6608ZM112.452 232.896H108.382V228.408H112.452V232.896ZM112.452 226.142H108.382V221.236H105.5V235.206H115.334V221.236H112.452V226.142ZM123.694 227.176H120.746V219.652H117.842V239.892H120.746V229.596H123.694V227.176ZM135.726 235.294V232.28H141.864V229.948H130.116V227.682H141.402V220.928H127.212V223.238H138.542V225.416H127.234V232.28H132.822V235.294H125.122V237.67H143.47V235.294H135.726ZM146.284 221.698V224.052H152.906C152.378 228.54 149.87 231.752 145.162 234.172L146.79 236.394C153.522 232.984 155.832 227.77 155.832 221.698H146.284ZM164.06 227.352H161.222V219.608H158.318V239.848H161.222V229.75H164.06V227.352ZM166.72 221.72V224.03H173.474C173.056 228.518 170.812 231.686 165.642 234.172L167.16 236.46C174.354 232.984 176.444 227.924 176.444 221.72H166.72ZM179.546 219.608V239.87H182.472V219.608H179.546Z" fill="white"/>
</svg>
