<svg width="421" height="590" viewBox="0 0 421 590" fill="none" xmlns="http://www.w3.org/2000/svg">
<rect opacity="0.9" x="0.5" y="0.5" width="420" height="589" rx="9.5" fill="#09120E" stroke="#EFEFEF"/>
<path d="M211 354.8C166.459 354.8 130.2 318.541 130.2 274C130.2 229.459 166.459 193.2 211 193.2C255.541 193.2 291.8 229.459 291.8 274C291.8 318.541 255.541 354.8 211 354.8ZM211 375C266.752 375 312 329.752 312 274C312 218.248 266.752 173 211 173C155.248 173 110 218.248 110 274C110 329.752 155.248 375 211 375ZM200.9 274L200.9 314.4L221.1 314.4L221.1 274L251.4 274L211 233.6L170.6 274L200.9 274Z" fill="#EFEFEF"/>
<path d="M140.144 402.772H136.008V396.7H140.144V402.772ZM133.126 402.772H130.486V405.082H145.71V402.772H143.026V396.7H145.776V394.39H130.376V396.7H133.126V402.772ZM128.946 408.184V410.538H147.294V408.184H128.946ZM159.788 408.294V405.28H165.926V402.948H154.178V400.682H165.464V393.928H151.274V396.238H162.604V398.416H151.296V405.28H156.884V408.294H149.184V410.67H167.532V408.294H159.788ZM177.805 397.624V399.978H179.961V404.884H182.667V393.004H179.961V397.624H177.805ZM179.389 402.222C176.815 401.21 175.803 399.12 175.803 396.942V396.392H178.751V394.082H169.797V396.392H172.987V396.942C172.987 399.208 171.909 401.518 169.159 402.596L170.633 404.818C172.481 404.092 173.691 402.794 174.417 401.188C175.099 402.64 176.243 403.806 177.959 404.466L179.389 402.222ZM172.745 408.03H183.789V412.914H186.693V405.742H172.745V408.03ZM183.943 392.63V404.972H186.693V392.63H183.943ZM206.051 403.08H194.765V400.814H205.435V398.57H194.765V396.436H205.897V394.104H191.817V405.368H206.051V403.08ZM189.661 408.206V410.56H208.009V408.206H189.661ZM222.452 405.896H218.382V401.408H222.452V405.896ZM222.452 399.142H218.382V394.236H215.5V408.206H225.334V394.236H222.452V399.142ZM233.694 400.176H230.746V392.652H227.842V412.892H230.746V402.596H233.694V400.176ZM245.726 408.294V405.28H251.864V402.948H240.116V400.682H251.402V393.928H237.212V396.238H248.542V398.416H237.234V405.28H242.822V408.294H235.122V410.67H253.47V408.294H245.726ZM256.284 394.698V397.052H262.906C262.378 401.54 259.87 404.752 255.162 407.172L256.79 409.394C263.522 405.984 265.832 400.77 265.832 394.698H256.284ZM274.06 400.352H271.222V392.608H268.318V412.848H271.222V402.75H274.06V400.352ZM276.72 394.72V397.03H283.474C283.056 401.518 280.812 404.686 275.642 407.172L277.16 409.46C284.354 405.984 286.444 400.924 286.444 394.72H276.72ZM289.546 392.608V412.87H292.472V392.608H289.546Z" fill="white"/>
</svg>
