<?xml version="1.0" encoding="UTF-8"?>
<svg width="700pt" height="700pt" version="1.1" viewBox="0 0 700 700" xmlns="http://www.w3.org/2000/svg">
 <g>
  <path d="m350 436.8c41.586 0 81.469-16.52 110.88-45.926s45.926-69.289 45.926-110.88-16.52-81.469-45.926-110.88-69.289-45.926-110.88-45.926-81.469 16.52-110.88 45.926-45.926 69.289-45.926 110.88c0.046875 41.57 16.582 81.426 45.977 110.82 29.398 29.395 69.254 45.93 110.82 45.977zm0-291.2c35.645 0 69.832 14.16 95.035 39.363s39.363 59.391 39.363 95.035-14.16 69.832-39.363 95.035-59.391 39.363-95.035 39.363-69.832-14.16-95.035-39.363-39.363-59.391-39.363-95.035c0.039063-35.633 14.211-69.797 39.406-94.992 25.195-25.195 59.359-39.367 94.992-39.406z"/>
  <path d="m350 328.53c12.871 0 25.219-5.1133 34.32-14.215 9.1016-9.1016 14.215-21.445 14.215-34.32 0-12.871-5.1133-25.215-14.219-34.316-9.1016-9.1016-21.445-14.215-34.316-14.215-12.875 0-25.219 5.1133-34.32 14.215-9.1016 9.1016-14.215 21.449-14.215 34.32s5.1172 25.215 14.219 34.316c9.1016 9.1016 21.445 14.215 34.316 14.215z"/>
 </g>
</svg>
