<svg
                          width="69"
                          height="111"
                          viewBox="0 0 69 111"
                          fill="none"
                          xmlns="http://www.w3.org/2000/svg"
                        >
                          <path
                            d="M23 50.3428H47V27.1076H63L35 0L7 27.1076H23V50.3428ZM7 58.0878H63V65.8329H7V58.0878Z"
                            fill="#EFEFEF"
                          />
                          <path
                            d="M12.667 87.9305H10.411V84.6185H12.667V87.9305ZM8.83897 87.9305H7.39897V89.1905H15.703V87.9305H14.239V84.6185H15.739V83.3585H7.33897V84.6185H8.83897V87.9305ZM6.55897 90.8825V92.1665H16.567V90.8825H6.55897ZM23.382 90.9425V89.2985H26.73V88.0265H20.322V86.7905H26.478V83.1065H18.738V84.3665H24.918V85.5545H18.75V89.2985H21.798V90.9425H17.598V92.2385H27.606V90.9425H23.382ZM37.8411 82.4105H36.2571V88.0625H37.8411V82.4105ZM31.5051 84.2945H32.6691V86.5265C32.2851 86.5505 31.8891 86.5625 31.5051 86.5745V84.2945ZM35.4771 86.3225C35.0571 86.3705 34.6371 86.4065 34.1931 86.4425V84.2945H35.0571V83.0705H29.1051V84.2945H29.9811V86.5985L28.8291 86.6105L28.9851 87.8585C30.8931 87.8585 33.3771 87.7985 35.5491 87.4385L35.4771 86.3225ZM31.9491 92.1425V91.4825H37.8411V88.5065H30.3651V89.7185H36.2691V90.3545H30.3771V93.3665H38.1531V92.1425H31.9491ZM46.4629 83.2505H44.8669V84.8585C44.8669 86.9105 44.0269 89.0225 42.1669 89.8985L43.1149 91.1825C44.3629 90.5705 45.1909 89.4065 45.6709 88.0025C46.1269 89.3225 46.9069 90.3905 48.0589 90.9785L49.0189 89.7305C47.2429 88.8545 46.4629 86.8505 46.4629 84.8585V83.2505ZM52.6549 86.6465H51.0469V82.3985H49.4629V93.4505H51.0469V87.9665H52.6549V86.6465ZM62.614 82.3985H61.018V90.3905H62.614V82.3985ZM60.322 87.8105C58.534 87.2225 57.73 85.8665 57.73 84.5705V84.4385H59.914V83.1905H53.902V84.4385H56.122V84.5705C56.122 85.9505 55.318 87.4025 53.482 87.9785L54.286 89.2145C55.57 88.7945 56.458 87.9425 56.95 86.8625C57.454 87.8465 58.294 88.6385 59.518 89.0225L60.322 87.8105ZM56.842 91.9985V89.6705H55.258V93.2585H62.89V91.9985H56.842ZM8.43205 109.058H4.25605V108.074H8.43205V109.058ZM8.43205 106.874H4.25605V105.818H2.68405V110.318H10.004V105.818H8.43205V106.874ZM3.81205 103.814C3.00805 103.814 2.42005 103.322 2.42005 102.494C2.42005 101.666 3.00805 101.174 3.81205 101.174C4.62805 101.174 5.21605 101.666 5.21605 102.494C5.21605 103.322 4.62805 103.814 3.81205 103.814ZM8.42005 99.3985V101.834H6.65605C6.34405 100.658 5.21605 99.8545 3.81205 99.8545C2.15605 99.8545 0.908047 100.958 0.908047 102.494C0.908047 104.03 2.15605 105.134 3.81205 105.134C5.24005 105.134 6.36805 104.318 6.66805 103.118H8.42005V105.338H10.004V99.3985H8.42005ZM17.5871 107.942V106.298H20.9351V105.026H14.5271V103.79H20.6831V100.106H12.9431V101.366H19.1231V102.554H12.9551V106.298H16.0031V107.942H11.8031V109.238H21.8111V107.942H17.5871ZM31.7822 104.498H25.5902V101.594H31.6982V100.31H24.0062V105.758H31.7822V104.498ZM22.8422 107.834V109.13H32.8502V107.834H22.8422ZM39.012 102.626C39.012 101.966 39.384 101.546 39.912 101.546C40.368 101.546 40.572 101.87 40.572 102.314C40.572 102.962 40.032 103.394 39.336 103.814C39.132 103.394 39.012 102.998 39.012 102.626ZM39.348 109.586C40.44 109.586 41.34 109.226 42.072 108.65C42.816 109.118 43.584 109.43 44.292 109.586L44.724 108.146C44.256 108.062 43.716 107.834 43.14 107.51C43.836 106.586 44.316 105.566 44.64 104.462H43.044C42.804 105.338 42.42 106.094 41.952 106.718C41.244 106.178 40.56 105.53 40.032 104.87C40.98 104.21 41.94 103.478 41.94 102.302C41.94 101.138 41.148 100.37 39.876 100.37C38.46 100.37 37.548 101.39 37.548 102.626C37.548 103.214 37.752 103.874 38.112 104.546C37.224 105.11 36.444 105.83 36.444 107.066C36.444 108.446 37.488 109.586 39.348 109.586ZM38.124 106.958C38.124 106.478 38.424 106.082 38.856 105.71C39.42 106.454 40.104 107.162 40.86 107.786C40.44 108.062 40.008 108.23 39.564 108.23C38.712 108.23 38.124 107.714 38.124 106.958ZM55.8458 102.506V103.61H53.8778V102.506H55.8458ZM52.3298 104.582H50.2298V103.022H52.3298V104.582ZM53.8778 104.87H55.8458V107.558H57.4298V99.3985H55.8458V101.234H53.8778V100.13H52.3298V101.81H50.2298V100.13H48.6578V105.842H53.8778V104.87ZM51.7178 108.998V106.766H50.1338V110.258H57.6698V108.998H51.7178ZM66.8849 102.41V103.43H64.4489V104.702H66.8849V105.758H68.4689V99.3985H66.8849V101.15H64.9049C64.9529 100.826 64.9769 100.49 64.9769 100.142H59.9129V101.414H63.2489C63.0449 102.914 61.8329 104.102 59.3129 104.774L59.9249 106.022C62.3609 105.338 63.9089 104.15 64.5929 102.41H66.8849ZM64.8209 109.166C63.4529 109.166 62.6489 108.818 62.6489 108.146C62.6489 107.474 63.4529 107.126 64.8209 107.126C66.1769 107.126 66.9809 107.474 66.9809 108.146C66.9809 108.818 66.1769 109.166 64.8209 109.166ZM64.8209 105.902C62.5649 105.902 61.0889 106.766 61.0889 108.146C61.0889 109.526 62.5649 110.39 64.8209 110.39C67.0649 110.39 68.5409 109.526 68.5409 108.146C68.5409 106.766 67.0649 105.902 64.8209 105.902Z"
                            fill="#EFEFEF"
                          />
                        </svg>