<svg width="30" height="22" viewBox="0 0 30 22" fill="none" xmlns="http://www.w3.org/2000/svg">
<path d="M21.3682 12.5542C23.2363 13.8329 24.5454 15.5654 24.5454 17.8754V22.0004H29.9999V17.8754C29.9999 14.8779 25.1318 13.1042 21.3682 12.5542Z" fill="white"/>
<path d="M19.091 10.9999C22.1046 10.9999 24.5455 8.53871 24.5455 5.49997C24.5455 2.46124 22.1046 0 19.091 0C18.4501 0 17.8501 0.137499 17.2773 0.329998C18.4092 1.74624 19.091 3.54748 19.091 5.49997C19.091 7.45246 18.4092 9.25371 17.2773 10.6699C17.8501 10.8624 18.4501 10.9999 19.091 10.9999Z" fill="white"/>
<path d="M10.9091 10.9999C13.9227 10.9999 16.3636 8.53871 16.3636 5.49997C16.3636 2.46124 13.9227 0 10.9091 0C7.89549 0 5.45459 2.46124 5.45459 5.49997C5.45459 8.53871 7.89549 10.9999 10.9091 10.9999ZM10.9091 2.74999C12.4091 2.74999 13.6364 3.98748 13.6364 5.49997C13.6364 7.01247 12.4091 8.24996 10.9091 8.24996C9.40912 8.24996 8.18185 7.01247 8.18185 5.49997C8.18185 3.98748 9.40912 2.74999 10.9091 2.74999Z" fill="white"/>
<path d="M10.909 12.375C7.26815 12.375 0 14.2175 0 17.875V22H21.8181V17.875C21.8181 14.2175 14.5499 12.375 10.909 12.375ZM19.0908 19.25H2.72726V17.8887C2.99999 16.8987 7.22724 15.125 10.909 15.125C14.5908 15.125 18.8181 16.8987 19.0908 17.875V19.25Z" fill="white"/>
</svg>
