<?xml version="1.0" encoding="utf-8"?>
<!-- Generator: Adobe Illustrator 26.3.1, SVG Export Plug-In . SVG Version: 6.00 Build 0)  -->
<svg version="1.1" id="레이어_1" xmlns="http://www.w3.org/2000/svg" xmlns:xlink="http://www.w3.org/1999/xlink" x="0px"
	 y="0px" viewBox="0 0 700 700" style="enable-background:new 0 0 700 700;" xml:space="preserve">
<style type="text/css">
	.st0{fill-rule:evenodd;clip-rule:evenodd;fill:#FFFFFF;}
</style>
<path class="st0" d="M350,279.6c63.2,0,111.7,15.8,146.4,38.1c46.1,29.6,68,71.1,68,102.8c0,28.2-22,47.4-58.1,59.6
	c-38.7,13.1-94.5,18.3-156.3,18.3s-117.6-5.2-156.3-18.3c-36.2-12.2-58.1-31.4-58.1-59.6c0-31.7,21.9-73.1,68-102.8
	C238.3,295.5,286.8,279.6,350,279.6L350,279.6z M350,61.6c28.2,0,53.7,11.4,72.2,29.9c18.5,18.5,29.9,44,29.9,72.2
	s-11.4,53.7-29.9,72.2c-18.5,18.5-44,29.9-72.2,29.9s-53.7-11.4-72.2-29.9c-18.5-18.5-29.9-44-29.9-72.2s11.4-53.7,29.9-72.2
	C296.3,73,321.8,61.6,350,61.6z"/>
</svg>
